<svg width="0" height="0" class="hidden">
  <symbol version="1.1" id="facebook" xml:space="preserve" xmlns="http://www.w3.org/2000/svg" xmlnsSvg="http://www.w3.org/2000/svg" viewBox="0 0 26.458332 26.458334">
    <defs id="defs1"></defs>
    <g id="layer1" transform="translate(-45.349939,-88.96875)">
      <g id="g3" transform="matrix(0.22222222,0,0,0.22224634,35.272175,69.195771)">
        <path id="path1002" d="M 250.00196,24.999999 C 155.50205,24.999999 97.000464,24.999536 61,61 24.999536,97.000464 24.999999,155.50205 24.999999,250.00196 24.999999,344.50186 24.999536,403.00054 61,439 89.614741,467.61395 132.80543,473.40895 196.62891,474.61329 V 469.70704 H 196.87305 L 196.71094,400.10743 196.54688,330.50586 174.94727,330.33789 153.34766,330.16992 V 297.85742 265.54688 H 175.10742 196.86719 L 196.87305,247.14649 C 196.87898,227.19279 197.4348,218.39391 199.47461,206.02735 205.08989,171.9837 224.03489,148.59916 253.82617,138.93945 269.35794,133.90335 277.6989,132.77135 299.26758,132.77539 316.34131,132.77853 326.1659,133.58232 339.24414,136.04688 347.50267,137.60321 346.62696,133.9094 346.62696,167.2168 V 196.20117 L 328.22657,196.16602 C 311.32272,196.13211 309.33366,196.24417 303.74805,197.5625 288.21099,201.22955 280.03009,208.78931 276.10547,223.10547 274.88782,227.54717 274.7035,230.19956 274.46289,246.82617 L 274.19141,265.54688 H 308.49024 C 335.50072,265.54688 342.78774,265.71765 342.78907,266.34766 342.7908,267.15175 340.31056,280.79185 334.43555,312.30469 332.69255,321.65398 331.26758,329.50341 331.26758,329.7461 331.26758,329.98878 318.45108,330.1875 302.78711,330.1875 H 274.30664 V 402.54688 414.44727 H 274.03711 L 273.69922,474.95118 C 354.24533,474.69857 406.15775,471.84226 439,439 474.99947,403.00054 475,344.50186 475,250.00196 475,155.50205 474.99947,97.000464 439,61 403.00054,24.999536 344.50186,24.999999 250.00196,24.999999 Z" transform="matrix(0.26458333,0,0,0.26458333,38.735356,82.354168)"></path>
      </g>
    </g>
  </symbol>
  <symbol version="1.1" id="linkedin" xml:space="preserve" xmlns="http://www.w3.org/2000/svg" xmlnsSvg="http://www.w3.org/2000/svg" viewBox="0 0 26.458332 26.458334">
    <defs id="defs1"></defs>
    <g id="layer1" transform="translate(-45.349939,-88.96875)">
      <path id="path1002-6" d="M 249.99998 25.000013 C 155.50007 25.000013 97.000455 24.999547 60.999991 61.000011 C 24.999527 97.000475 24.999994 155.50009 24.999994 250 C 24.999994 344.4999 24.999527 403.00052 60.999991 438.99999 C 97.000455 474.99945 155.50007 474.99998 249.99998 474.99998 C 344.49988 474.99998 403.0005 474.99945 438.99997 438.99999 C 474.99943 403.00052 474.99997 344.4999 474.99997 250 C 474.99997 155.50009 474.99943 97.000475 438.99997 61.000011 C 403.0005 24.999547 344.49988 25.000013 249.99998 25.000013 z M 147.72167 114.98243 C 148.94531 115.00852 150.16642 115.10424 151.3867 115.28126 C 177.78409 119.11049 189.01793 150.25847 170.95995 169.5625 C 166.42594 174.4094 160.22068 178.06921 154.50682 179.26563 C 143.16216 181.6411 132.3065 178.48423 124.31639 170.49414 C 117.92052 164.09829 114.81903 156.64879 114.833 147.73926 C 114.84761 138.42037 117.8265 131.12511 124.27245 124.65919 C 130.65235 118.25947 139.15634 114.79978 147.72167 114.98243 z M 319.03806 200.36817 C 324.74423 200.3663 330.60204 200.71511 334.62986 201.42285 C 354.64836 204.94027 367.52474 214.04507 375.61325 230.40918 C 379.386 238.04197 381.52736 245.29122 383.54099 257.22461 C 384.56432 263.28893 384.71638 270.75121 384.92966 324.53124 L 385.16696 385.00878 L 357.16501 385.00878 L 329.15427 385.00878 L 328.88181 332.4414 C 328.64362 287.75241 328.43924 279.08653 327.54587 274.63574 C 325.33987 263.64373 321.57206 257.13667 315.19724 253.31348 C 310.11657 250.26635 307.33387 249.6379 299.06931 249.6748 C 291.25082 249.7095 285.90945 251.01972 281.06052 254.08691 C 277.32553 256.44964 273.11945 261.40657 270.98826 265.96094 C 266.82725 274.85264 266.882 274.06008 266.47947 331.94921 L 266.11033 384.68358 L 238.25779 384.85058 L 210.40526 385.02636 L 210.40526 294.70996 L 210.40526 204.38477 L 237.08885 204.38477 L 263.77244 204.38477 L 263.95701 217.07617 L 264.13279 229.76758 L 266.51463 226.1377 C 274.81922 213.49014 288.14457 204.78675 304.34275 201.43164 C 307.77092 200.72148 313.33176 200.36994 319.03806 200.36817 z M 174.80955 204.37598 L 174.80955 294.69238 L 174.80955 385.00878 L 147.10643 385.00878 C 125.54693 385.00878 119.32211 384.83276 119.07811 384.1914 C 118.90564 383.73831 118.84427 343.17003 118.93749 294.04199 L 119.10448 204.71875 L 146.95702 204.54297 L 174.80955 204.37598 z " transform="matrix(0.0587963,0,0,0.0587963,43.880032,87.498842)"></path>
    </g>
  </symbol>
  <symbol version="1.1" id="openedg" xml:space="preserve" xmlns="http://www.w3.org/2000/svg" xmlnsSvg="http://www.w3.org/2000/svg" viewBox="0 0 26.458332 26.458334">
    <defs id="defs1"></defs>
    <g id="layer1" transform="translate(-45.349939,-88.96875)">
      <path id="path1002" d="M 250.00001 25.000013 C 155.50011 25.000013 97.000489 24.999547 61.000025 61.000011 C 24.999561 97.000475 25.000028 155.50009 25.000028 250 C 25.000028 344.4999 24.999561 403.00052 61.000025 438.99999 C 97.000489 474.99945 155.50011 474.99998 250.00001 474.99998 C 344.49992 474.99998 403.00054 474.99945 439 438.99999 C 474.99947 403.00052 475 344.4999 475 250 C 475 155.50009 474.99947 97.000475 439 61.000011 C 403.00054 24.999547 344.49992 25.000013 250.00001 25.000013 z M 193.26662 112.16114 C 198.39753 112.09666 203.29459 113.87432 207.00392 117.58399 L 248.77833 159.34961 L 290.55275 117.58399 C 291.04669 117.09005 291.56457 116.63016 292.09962 116.20411 C 295.84494 113.22171 300.53083 111.89292 305.31837 112.17872 L 305.32716 112.17872 C 310.11193 112.46627 314.99175 114.36331 319.1172 117.81251 L 319.12599 117.81251 C 319.71396 118.30434 320.28501 118.83087 320.83985 119.38575 L 322.36036 120.90626 C 325.13266 123.68842 327.11442 126.91413 328.29298 130.28419 C 328.76432 131.63221 329.10916 133.00793 329.3213 134.37989 C 330.27627 140.55374 328.58999 146.7662 324.16212 151.19336 L 266.33009 209.02539 L 264.80958 210.5459 L 263.00783 212.34766 C 259.20165 216.15403 254.06822 217.9289 248.77833 217.73535 C 243.48843 217.9289 238.3638 216.15403 234.55763 212.34766 L 232.74708 210.5459 L 231.23537 209.02539 L 173.39455 151.19336 C 165.49168 143.29055 166.30091 129.80919 175.2051 120.90626 L 176.71681 119.38575 C 181.45855 114.67604 187.46143 112.22567 193.26662 112.16114 z M 127.42776 169.15821 C 132.55683 169.09392 137.45573 170.87159 141.16506 174.58106 L 199.04103 232.4834 L 200.55275 233.99512 L 202.3633 235.80566 C 206.16763 239.61168 207.94468 244.73607 207.75099 250.02637 C 207.94468 255.31666 206.16947 260.4495 202.3633 264.25586 L 200.55275 266.05762 L 199.00588 267.57812 L 141.16506 325.41015 C 133.26221 333.31353 119.78034 332.51167 110.87795 323.60839 L 109.36623 322.08789 C 100.49492 313.18512 99.683889 299.67167 107.55569 291.80078 L 149.36525 250 L 107.55569 208.19043 C 99.650996 200.28756 100.46385 186.80627 109.36623 177.90332 L 110.87795 176.38282 C 115.62149 171.67363 121.62073 169.22274 127.42776 169.15821 z M 372.57227 171.54883 C 378.37928 171.61336 384.38219 174.06422 389.12207 178.77344 L 390.63379 180.29395 C 399.53618 189.19685 400.34723 202.67798 392.44434 210.58106 L 350.63477 252.39062 L 392.44434 294.1914 C 400.31433 302.06247 399.50327 315.57507 390.63379 324.47851 L 389.12207 325.99902 C 380.21969 334.90229 366.72901 335.70399 358.82618 327.80078 L 300.99415 269.96875 L 299.44728 268.44824 L 297.63673 266.64648 C 293.82876 262.84029 292.05533 257.70728 292.24903 252.41699 C 292.05533 247.1267 293.82876 242.00265 297.63673 238.19629 L 299.44728 236.38574 L 300.95899 234.87402 L 358.82618 176.97168 C 362.53549 173.26217 367.44314 171.48436 372.57227 171.54883 z M 248.33009 282.2207 C 248.4909 282.2207 248.65268 282.25586 248.81349 282.25586 C 253.44214 282.08646 257.94494 283.4207 261.54884 286.30761 C 262.06369 286.72005 262.55841 287.16767 263.03419 287.64355 L 264.84474 289.44531 L 266.35646 290.96582 L 324.19727 348.833 C 331.60794 356.24196 331.36389 368.55133 323.96876 377.39745 C 323.47573 377.98711 322.95195 378.56378 322.39552 379.12011 L 322.38673 379.12011 L 320.87501 380.64062 C 319.20766 382.30211 317.37578 383.67991 315.45216 384.77147 C 313.52872 385.86219 311.50274 386.66655 309.45802 387.17968 C 308.09303 387.52188 306.71363 387.73964 305.34474 387.82128 C 303.97583 387.90292 302.61693 387.853 301.28419 387.67187 C 299.28779 387.40059 297.34783 386.82574 295.54493 385.958 L 295.53614 385.958 C 293.73115 385.08839 292.06352 383.91815 290.5879 382.44237 L 248.77833 340.64159 L 207.00392 382.41601 C 199.10105 390.31888 185.62101 389.50839 176.71681 380.60546 L 175.2051 379.09374 C 166.3338 370.19081 165.52457 356.66857 173.39455 348.79784 L 231.26173 290.96582 L 232.78224 289.44531 L 234.584 287.64355 C 238.29333 283.9338 243.23389 282.15624 248.33009 282.2207 z " transform="matrix(0.0587963,0,0,0.0587963,43.88003,87.498842)"></path>
    </g>
  </symbol>
</svg>